<?xml version="1.0" encoding="UTF-8"?>
<svg id="Layer_1" xmlns="http://www.w3.org/2000/svg" version="1.1" viewBox="0 0 20 20">
  <!-- Generator: Adobe Illustrator 29.0.1, SVG Export Plug-In . SVG Version: 2.1.0 Build 192)  -->
  <defs>
    <style>
      .st0 {
        fill: #5e5e5e;
      }
    </style>
  </defs>
  <path class="st0" d="M10,12.1l-6.5,6.5c-.3.3-.7.5-1.1.5s-.7-.2-1-.5c-.3-.3-.5-.6-.5-1s.2-.7.5-1l6.5-6.5L1.5,3.5c-.3-.3-.4-.6-.4-1s.1-.8.4-1c.3-.3.6-.4,1-.4s.8.1,1.1.4l6.5,6.5,6.5-6.5c.3-.3.6-.4,1-.4s.8.1,1.1.4c.3.3.4.7.4,1.1s-.1.7-.4,1l-6.5,6.5,6.5,6.5c.3.3.5.7.5,1.1s-.2.7-.5,1c-.3.3-.6.5-1,.5s-.7-.2-1-.5l-6.5-6.5Z"/>
</svg>