<svg xmlns="http://www.w3.org/2000/svg" width="24" height="18" viewBox="0 0 24 18"><path d="M28.5,8.24V24.76a1,1,0,0,1-1,.73h-22a.9.9,0,0,1-1-.81,1,1,0,0,1,0-.24V8.24a.9.9,0,0,1,1-.73H27.39A1.1,1.1,0,0,1,28.5,8.24ZM8.13,24V11.71c.1.11.19.11.19.22,2.46,1.71,4.91,3.25,7.36,4.94a1.29,1.29,0,0,0,1.5,0c2.41-1.71,4.91-3.37,7.36-4.94.1,0,.1-.11.2-.22V24h1.1c.71,0,.9-.32.9-1.05V9.69a.74.74,0,0,0-.62-.85h-.9c-.19,0-.3.1-.49.1-2.72,1.79-5.42,3.68-8.14,5.57-.19.11-.3.11-.4,0-2.51-1.79-5.11-3.42-7.62-5.26a3.05,3.05,0,0,0-1.51-.53c-.7,0-.9.32-.9,1.06V23.14a.7.7,0,0,0,.67.73h0A5.44,5.44,0,0,0,8.13,24Z" transform="translate(-4.5 -7.5)"/></svg>