<svg fill="none" height="34" viewBox="0 0 33 34" width="33" xmlns="http://www.w3.org/2000/svg"><path d="m31.8121 4.79524c-1.3167.9317-2.7746 1.6443-4.3175 2.11036-.8281-.95517-1.9286-1.63216-3.1528-1.93942-1.2242-.30727-2.5129-.22998-3.6918.22141-1.179.45139-2.1913 1.25511-2.9 2.30244-.7088 1.04734-1.0798 2.28776-1.0629 3.55347v1.3794c-2.4163.0628-4.8107-.4748-6.96983-1.565-2.15911-1.09012-4.01595-2.69901-5.40514-4.68334 0 0-5.5 12.41384 6.87497 17.93114-2.83174 1.9282-6.20513 2.895-9.62497 2.7586 12.37497 6.8966 27.49997 0 27.49997-15.8621-.0012-.3842-.0381-.7675-.11-1.14487 1.4034-1.38829 2.3937-3.1411 2.86-5.06209z" fill="#000"/></svg>