<svg width="31" height="30" viewBox="0 0 31 30" fill="none" xmlns="http://www.w3.org/2000/svg">
<rect x="0.5" width="30" height="30" rx="3" fill="white"/>
<path fill-rule="evenodd" clip-rule="evenodd" d="M19.779 10.3604L19.7786 10.9132H19.7777V18.3423C19.7777 20.1134 19.0297 21.798 17.6869 23.0504C16.344 24.3027 14.5375 25 12.6389 25C10.7402 25 8.93367 24.3027 7.591 23.0504C6.24809 21.7982 5.5 20.1135 5.5 18.3423C5.5 16.571 6.24809 14.887 7.591 13.6347C8.93379 12.3823 10.7398 11.6847 12.6389 11.6847H13.9636V15.1846H12.6389C11.7373 15.1846 10.882 15.515 10.2444 16.1097C9.60683 16.7042 9.25292 17.5016 9.25292 18.3423C9.25292 19.183 9.60683 19.9807 10.2444 20.5754C10.882 21.1696 11.7374 21.5003 12.6389 21.5003C13.5404 21.5003 14.3957 21.1696 15.0334 20.5754C15.6705 19.9807 16.0248 19.1835 16.0248 18.3496V5H19.7621L19.9493 5.32311C20.5312 6.32886 21.316 7.28237 22.2894 7.98583C23.042 8.52996 23.8937 8.91385 24.8348 9.06772L25.5 9.17652L24.7861 12.5507L24.1468 12.4441C23.3854 12.3172 22.6378 12.1018 21.9379 11.7942C21.1346 11.4407 20.3894 10.9638 19.779 10.3603V10.3604Z" fill="#121212"/>
</svg>
