<svg fill="none" height="34" viewBox="0 0 33 34" width="33" xmlns="http://www.w3.org/2000/svg"><path d="m30.6891 4.82903-28.6184 10.04337c-.15035.0557-.27904.1509-.36962.2734-.09058.1226-.13895.2669-.13895.4145s.04837.2919.13895.4144.21927.2177.36962.2735l6.97677 2.3663 2.70893 7.8971c.0391.117.1093.2235.2045.3099s.2123.1501.341.1855c.1288.0354.2652.0413.397.0173.1319-.024.2552-.0772.3591-.1549l3.8894-2.8892c.2025-.1395.4497-.215.7037-.215.2541 0 .5012.0755.7038.215l7.007 4.6226c.1108.0743.2405.1218.3769.1383s.2752.0014.4035-.0438c.1284-.0453.242-.1194.3305-.2152.0884-.0959.1488-.2105.1755-.3333l5.1456-22.45301c.031-.13262.0224-.27039-.0252-.39891-.0475-.12852-.1322-.24308-.2451-.33167s-.25-.14798-.3968-.17194c-.1468-.02395-.298-.0116-.4377.03576zm-5.4634 5.25557-11.2446 9.5068c-.3939.3341-.6502.7808-.7264 1.2657l-.3783 2.5865c-.0166.071-.0594.1346-.1214.1802-.062.0457-.1394.0706-.2192.0706-.0797 0-.1571-.0249-.2191-.0706-.062-.0456-.1048-.1092-.1214-.1802l-1.5134-4.7052c-.0758-.258-.0578-.5314.0513-.7793.1091-.248.3035-.4572.5541-.5965l13.6206-7.63573c.0522-.03831.119-.0562.1857-.04975.0666.00645.1278.0367.1699.08414.0422.04743.0619.10815.0548.16878s-.0404.11626-.0926.15456z" fill="#000"/></svg>