<?xml version="1.0" encoding="UTF-8"?>
<svg id="Layer_1" xmlns="http://www.w3.org/2000/svg" version="1.1" viewBox="0 0 20 20">
  <!-- Generator: Adobe Illustrator 29.0.1, SVG Export Plug-In . SVG Version: 2.1.0 Build 192)  -->
  <defs>
    <style>
      .st0 {
        fill: #5e5e5e;
      }
    </style>
  </defs>
  <path class="st0" d="M4,10c-.4,0-.8-.3-.8-.8V1.7c0-.4.3-.7.8-.7s.8.3.8.7v7.5c0,.4-.3.8-.8.8Z"/>
  <path class="st0" d="M16,10c-.4,0-.8-.3-.8-.8V1.7c0-.4.3-.7.8-.7s.8.3.8.7v7.5c0,.4-.3.8-.8.8Z"/>
  <path class="st0" d="M4.8,18.2v-1.5c0-.4-.3-.8-.8-.8s-.7.3-.7.8v1.5c0,.4.3.8.8.8s.8-.3.7-.8Z"/>
  <path class="st0" d="M16.8,16.8v1.5c0,.4-.3.8-.8.8s-.8-.3-.8-.8v-1.5c0-.4.3-.8.8-.8s.8.3.8.8Z"/>
  <path class="st0" d="M10.8,3.2v-1.5c0-.4-.3-.7-.8-.7s-.7.3-.7.8v1.5c0,.4.3.7.8.7s.8-.3.8-.8Z"/>
  <path class="st0" d="M10,19c-.4,0-.8-.3-.8-.8v-7.5c0-.4.3-.8.8-.8s.8.3.8.8v7.5c0,.4-.3.8-.8.8Z"/>
  <path class="st0" d="M1.7,13c0,1.2,1,2.2,2.2,2.2s2.3-1,2.3-2.2-1-2.2-2.3-2.2-2.2,1-2.2,2.2Z"/>
  <path class="st0" d="M10,9.2c-1.2,0-2.2-1-2.2-2.2s1-2.3,2.2-2.3,2.2,1,2.2,2.3-1,2.2-2.2,2.2Z"/>
  <path class="st0" d="M13.8,13c0,1.2,1,2.2,2.2,2.2s2.2-1,2.2-2.2-1-2.2-2.2-2.2-2.2,1-2.2,2.2Z"/>
</svg>