<?xml version="1.0" encoding="UTF-8"?>
<svg id="Layer_1" xmlns="http://www.w3.org/2000/svg" version="1.1" viewBox="0 0 20 20">
  <!-- Generator: Adobe Illustrator 29.0.1, SVG Export Plug-In . SVG Version: 2.1.0 Build 192)  -->
  <defs>
    <style>
      .st0 {
        fill: none;
        stroke: #5e5e5e;
        stroke-linecap: round;
        stroke-linejoin: round;
        stroke-width: 1.5px;
      }
    </style>
  </defs>
  <path class="st0" d="M13.5,8.6v-4.2c0-1.9-1.5-3.5-3.5-3.5s-3.5,1.5-3.5,3.5v4.2M17,6.8l1.2,11.1c0,.6-.4,1.1-1,1.1H2.8c-.6,0-1.1-.5-1-1.1l1.2-11.1c0-.5.5-.9,1-.9h12c.5,0,1,.4,1,.9ZM6.9,8.6c0,.2-.2.3-.3.3s-.3-.2-.3-.3.2-.3.3-.3.3.2.3.3ZM13.8,8.6c0,.2-.2.3-.3.3s-.3-.2-.3-.3.2-.3.3-.3.3.2.3.3Z"/>
</svg>