<svg fill="none" height="34" viewBox="0 0 33 34" width="33" xmlns="http://www.w3.org/2000/svg"><path d="m31.1787 10.7599c-.1643-.6361-.4959-1.21988-.9625-1.69432-.4691-.46569-1.0576-.80184-1.7049-.97389-2.3649-.56032-11.8245-.56032-11.8245-.56032s-9.45956.00001-11.82446.61369c-.64732.17205-1.23575.50818-1.70491.97388-.46652.47443-.79817 1.05826-.96247 1.69426-.43114 2.329-.64283 4.6912-.63246 7.0573-.00917 2.3839.20249 4.7637.63246 7.1107.1851.6102.52555 1.1654.98996 1.6143.46622.45 1.04385.7762 1.67742.9472 2.3649.6137 11.82446.6137 11.82446.6137s9.4596 0 11.8245-.6137c.6473-.1777 1.2347-.5179 1.7031-.9864.4683-.4685.801-1.0486.9643-1.6818.4366-2.3102.6484-4.6552.6325-7.004.0171-2.3841-.1946-4.7646-.6325-7.1106zm-17.5855 11.4331v-8.7249l7.9059 4.3624z" fill="#000"/></svg>