<?xml version="1.0" encoding="UTF-8"?>
<svg id="Layer_1" xmlns="http://www.w3.org/2000/svg" version="1.1" viewBox="0 0 48 48">
  <!-- Generator: Adobe Illustrator 29.0.1, SVG Export Plug-In . SVG Version: 2.1.0 Build 192)  -->
  <defs>
    <style>
      .st0 {
        fill: none;
        stroke: #000;
        stroke-linecap: round;
        stroke-linejoin: round;
        stroke-width: 3px;
      }
    </style>
  </defs>
  <path d="M24,43.5l-2.8-2.5c-3.6-3.3-6.5-6.1-8.9-8.5-2.3-2.4-4.2-4.5-5.6-6.5s-2.4-3.7-2.9-5.3c-.5-1.6-.8-3.2-.8-4.8,0-3.3,1.1-6.1,3.3-8.3,2.2-2.2,5-3.4,8.2-3.4s3.6.4,5.2,1.2,3,2,4.3,3.6c1.4-1.6,2.9-2.8,4.4-3.6,1.6-.8,3.2-1.2,5.1-1.2,3.3,0,6.1,1.1,8.3,3.4s3.3,5,3.3,8.3c0,1.6-.3,3.2-.8,4.8-.6,1.6-1.5,3.3-2.9,5.2-1.4,1.9-3.2,4.1-5.6,6.5-2.4,2.4-5.3,5.2-8.9,8.5l-2.8,2.5Z"/>
  <path class="st0" d="M24,43.5l-2.8-2.5c-3.6-3.3-6.5-6.1-8.9-8.5-2.3-2.4-4.2-4.5-5.6-6.5s-2.4-3.7-2.9-5.3c-.5-1.6-.8-3.2-.8-4.8,0-3.3,1.1-6.1,3.3-8.3,2.2-2.2,5-3.4,8.2-3.4s3.6.4,5.2,1.2,3,2,4.3,3.6c1.4-1.6,2.9-2.8,4.4-3.6,1.6-.8,3.2-1.2,5.1-1.2,3.3,0,6.1,1.1,8.3,3.4s3.3,5,3.3,8.3c0,1.6-.3,3.2-.8,4.8-.6,1.6-1.5,3.3-2.9,5.2-1.4,1.9-3.2,4.1-5.6,6.5-2.4,2.4-5.3,5.2-8.9,8.5l-2.8,2.5Z"/>
</svg>