<svg width="31" height="30" viewBox="0 0 31 30" fill="none" xmlns="http://www.w3.org/2000/svg">
    <path
        d="M19.98 5H10.98C9.52722 5.0131 8.13795 5.59682 7.1125 6.62498C6.08706 7.65314 5.50783 9.04314 5.5 10.4945V19.4855C5.50264 20.9473 6.08507 22.3483 7.11969 23.3819C8.15432 24.4156 9.55682 24.9974 11.02 25H20.02C21.4763 24.9869 22.8685 24.4004 23.8945 23.3679C24.9205 22.3355 25.4974 20.9404 25.5 19.4855V10.4945C25.4921 9.03626 24.9073 7.64028 23.8733 6.611C22.8392 5.58171 21.4398 5.00262 19.98 5ZM23.73 19.4855C23.73 20.4791 23.3349 21.432 22.6317 22.1345C21.9284 22.8371 20.9746 23.2318 19.98 23.2318H10.98C9.99239 23.2213 9.04881 22.8219 8.35418 22.1205C7.65955 21.4191 7.26995 20.4722 7.27 19.4855V10.4945C7.27 9.50094 7.66509 8.54807 8.36835 7.84551C9.07161 7.14295 10.0254 6.74825 11.02 6.74825H20.02C21.0076 6.75878 21.9512 7.15811 22.6458 7.85953C23.3405 8.56096 23.7301 9.50783 23.73 10.4945V19.4855Z"
        fill="black" />
    <path
        d="M15.5003 9.84521C14.4818 9.84521 13.4861 10.147 12.6392 10.7123C11.7922 11.2776 11.1321 12.0812 10.7424 13.0213C10.3526 13.9614 10.2506 14.9958 10.4493 15.9938C10.648 16.9918 11.1385 17.9085 11.8588 18.6281C12.579 19.3475 13.4966 19.8376 14.4956 20.0361C15.4947 20.2346 16.5301 20.1327 17.4712 19.7433C18.4122 19.3539 19.2165 18.6945 19.7824 17.8484C20.3483 17.0024 20.6504 16.0076 20.6504 14.9901C20.6477 13.6264 20.1043 12.3193 19.139 11.355C18.1738 10.3908 16.8654 9.84785 15.5003 9.84521ZM15.5003 18.3667C14.8318 18.3667 14.1784 18.1686 13.6225 17.7977C13.0667 17.4266 12.6334 16.8993 12.3776 16.2823C12.1218 15.6653 12.0549 14.9864 12.1853 14.3313C12.3157 13.6763 12.6376 13.0747 13.1103 12.6024C13.5831 12.1302 14.1853 11.8086 14.8409 11.6783C15.4966 11.5481 16.1762 11.6149 16.7938 11.8705C17.4114 12.1261 17.9393 12.5588 18.3107 13.1142C18.6821 13.6694 18.8803 14.3222 18.8803 14.9901C18.8777 15.8848 18.5208 16.7421 17.8875 17.3748C17.2541 18.0074 16.3959 18.3641 15.5003 18.3667Z"
        fill="black" />
    <path
        d="M20.8696 8.33691C20.5248 8.33691 20.1942 8.47375 19.9503 8.7173C19.7066 8.96086 19.5696 9.29118 19.5696 9.63562C19.5694 9.80624 19.6028 9.97523 19.668 10.1329C19.7333 10.2906 19.829 10.434 19.9496 10.5547C20.0703 10.6755 20.2137 10.7714 20.3716 10.8368C20.5294 10.9022 20.6987 10.9358 20.8696 10.9358C21.0405 10.9358 21.2097 10.9022 21.3676 10.8368C21.5254 10.7714 21.6688 10.6755 21.7896 10.5547C21.9103 10.434 22.0059 10.2906 22.0711 10.1329C22.1363 9.97523 22.1698 9.80624 22.1696 9.63562C22.1696 9.29118 22.0327 8.96086 21.7888 8.7173C21.5451 8.47375 21.2144 8.33691 20.8696 8.33691Z"
        fill="black" />
</svg>