<?xml version="1.0" encoding="UTF-8"?><svg id="a" xmlns="http://www.w3.org/2000/svg" width="100" height="21.47" xmlns:xlink="http://www.w3.org/1999/xlink" viewBox="0 0 100 21.47"><defs><style>.c{fill:url(#b);}.d{fill:#fff;}</style><linearGradient id="b" x1="5.46" y1="14.41" x2="5.46" y2=".51" gradientUnits="userSpaceOnUse"><stop offset="0" stop-color="#18dcff"/><stop offset=".2" stop-color="#19d9fe"/><stop offset=".34" stop-color="#20cffc"/><stop offset=".46" stop-color="#2abff9"/><stop offset=".58" stop-color="#39a9f5"/><stop offset=".69" stop-color="#4b8cf0"/><stop offset=".79" stop-color="#6269e9"/><stop offset=".82" stop-color="#6c5ce7"/></linearGradient></defs><path class="c" d="M3.54,8.24v-.16c.02-.87,.85-1.46,1.62-1.46h2.52c.89,0,1.62,.73,1.62,1.62v2.52c0,.89-.73,1.62-1.62,1.62h-.28v1.7c2.57-.99,3.52-3.96,3.52-5,0-1.26-.42-2.58-1.52-3.82-1.08-1.2-3.62-2.42-3.12-5.26,0,0-4.68,1.92-3,6.76,0,0-.88-.34-1.36-1.82,0,0-1.92,1.6-1.92,3.9,0,1.99,1.23,4.32,3.54,5.21v-5.81Z"/><g><path class="d" d="M6.4,15.07v-3.7h1.28c.34,0,.62-.28,.62-.62v-2.52c0-.34-.28-.62-.62-.62h-2.52c-.29,0-.61,.21-.62,.48v.14s0,2.52,0,2.52v4.32c-1.93,.32-3.38,1.62-3.38,3.16,0,1.78,1.94,3.24,4.32,3.24s4.32-1.46,4.32-3.24c0-1.56-1.46-2.85-3.4-3.16Zm1.2,4.2c-.54,.4-1.32,.64-2.12,.64s-1.58-.24-2.12-.64c-.24-.18-.64-.56-.64-1.04s.4-.86,.64-1.04c.54-.4,1.32-.64,2.12-.64s1.58,.24,2.12,.64c.24,.18,.64,.56,.64,1.04s-.4,.86-.64,1.04Z"/><path class="d" d="M5.48,16.97c-.7,0-1.26,.56-1.26,1.26s.56,1.26,1.26,1.26,1.26-.56,1.26-1.26-.56-1.26-1.26-1.26Z"/></g><g><path class="d" d="M13.9,16.17l.68-1.52c.74,.54,1.82,.9,2.86,.9,1.2,0,1.68-.4,1.68-.92,0-1.62-5.04-.5-5.04-3.74,0-1.48,1.18-2.7,3.66-2.7,1.1,0,2.2,.26,3.02,.76l-.62,1.52c-.8-.46-1.64-.68-2.4-.68-1.18,0-1.64,.44-1.64,1,0,1.6,5.04,.5,5.04,3.68,0,1.46-1.2,2.68-3.68,2.68-1.42,.02-2.8-.38-3.56-.98Z"/><path class="d" d="M30.03,8.36v8.68h-2v-3.56h-3.94v3.56h-2V8.36h2v3.42h3.94v-3.42h2Z"/><path class="d" d="M37.37,15.17h-4.02l-.78,1.86h-2.06l3.86-8.68h1.98l3.88,8.68h-2.1l-.76-1.86Zm-.64-1.52l-1.38-3.32-1.38,3.32h2.76Z"/><path class="d" d="M48.59,17.03l-.02-5.2-2.56,4.28h-.9l-2.54-4.18v5.1h-1.88V8.36h1.66l3.24,5.4,3.2-5.4h1.64l.02,8.68h-1.86Z"/><path class="d" d="M57.81,15.17h-4.02l-.76,1.86h-2.06l3.86-8.68h1.98l3.88,8.68h-2.1l-.78-1.86Zm-.62-1.52l-1.38-3.32-1.38,3.32h2.76Z"/><path class="d" d="M69.11,8.36v8.68h-1.64l-4.32-5.26v5.26h-1.98V8.36h1.66l4.32,5.26v-5.26h1.96Z"/><path class="d" d="M70.71,8.36h2v8.68h-2V8.36Z"/><path class="d" d="M73.75,12.7c0-2.62,2-4.48,4.72-4.48,1.5,0,2.76,.54,3.56,1.54l-1.28,1.18c-.58-.66-1.32-1.02-2.18-1.02-1.62,0-2.78,1.14-2.78,2.78s1.16,2.78,2.78,2.78c.86,0,1.6-.34,2.18-1.02l1.28,1.18c-.82,1-2.08,1.54-3.58,1.54-2.68,0-4.7-1.86-4.7-4.48Z"/><path class="d" d="M82.12,12.7c0-2.62,2-4.48,4.72-4.48,1.5,0,2.76,.54,3.56,1.54l-1.28,1.18c-.58-.66-1.32-1.02-2.18-1.02-1.62,0-2.78,1.14-2.78,2.78s1.16,2.78,2.78,2.78c.86,0,1.6-.34,2.18-1.02l1.28,1.18c-.82,1-2.08,1.54-3.58,1.54-2.68,0-4.7-1.86-4.7-4.48Z"/><path class="d" d="M97.12,15.17h-4.02l-.76,1.86h-2.06l3.86-8.68h1.98l3.88,8.68h-2.1l-.78-1.86Zm-.64-1.52l-1.38-3.32-1.38,3.32h2.76Z"/></g></svg>