<svg width="31" height="30" viewBox="0 0 31 30" fill="none" xmlns="http://www.w3.org/2000/svg">
    <path
        d="M25.0812 10.4206C24.9726 10.0094 24.7533 9.63202 24.4448 9.32531C24.1347 9.02426 23.7456 8.80695 23.3176 8.69572C21.754 8.3335 15.4998 8.3335 15.4998 8.3335C15.4998 8.3335 9.24552 8.3335 7.68195 8.73022C7.25397 8.84145 6.86493 9.05874 6.55474 9.3598C6.2463 9.6665 6.02702 10.0439 5.9184 10.4551C5.63334 11.9607 5.49338 13.4878 5.50024 15.0174C5.49418 16.5585 5.63412 18.0969 5.9184 19.6142C6.04078 20.0086 6.26587 20.3676 6.57291 20.6578C6.88116 20.9487 7.26306 21.1595 7.68195 21.2701C9.24552 21.6668 15.4998 21.6668 15.4998 21.6668C15.4998 21.6668 21.754 21.6668 23.3176 21.2701C23.7456 21.1552 24.1339 20.9353 24.4436 20.6324C24.7533 20.3296 24.9732 19.9545 25.0812 19.5452C25.3698 18.0517 25.5099 16.5358 25.4994 15.0174C25.5107 13.4761 25.3707 11.9372 25.0812 10.4206ZM13.4544 17.8117V12.1714L18.6815 14.9915L13.4544 17.8117Z"
        fill="black" />
</svg>